<svg version="1.0" xmlns="http://www.w3.org/2000/svg" width="512pt" height="512pt" viewBox="0 0 512 512"><g transform="translate(0.000000,512.000000) scale(0.100000,-0.100000)" fill="#000" stroke="none"><path d="M843 51e2c-84-22-130-44-199-97-103-77-178-193-203-311-15-74-16-4189 0-4264C477 252 627 89 809 27l66-22 1650-3c18e2-3 1718-5 1844 53 148 69 268 218 3e2 373 16 75 16 4189 0 4264-24 115-96 228-194 306-67 53-122 79-212 103-74 18-125 19-1712 18-1567 0-1639-1-1708-19zm3387-2325V1070H2555 880v1705 1705h1675 1675V2775zM2701 819c68-32 120-83 156-152 36-70 39-188 6-259-114-248-490-254-610-10-38 77-39 193-4 262 45 86 92 130 179 167 79 33 192 29 273-8z"/><path d="M2116 4415c-22-8-54-29-72-47-22-23-195-362-553-1086-484-977-521-1056-521-1104 0-62 34-126 82-156 56-35 19e2-864 1952-878 62-17 114-9 170 26 43 27 51 44 356 657 172 345 359 723 415 839l102 211-177 443c-111 279-185 449-197 457-20 13-1236 564-1368 619-87 37-129 41-189 19zm690-455c329-148 623-282 653-297l54-28 152-381 152-380-383-773c-261-525-388-772-396-768-17 7-1429 644-1668 752-116 53-185 90-185 99 0 18 1006 2046 1015 2046 4 0 276-121 606-270z"/><path d="M2170 3730c-23-45-40-86-38-91 3-10 725-339 743-339 11 0 92 168 84 173-2 2-168 77-369 167-201 90-368 165-372 167-4 2-26-33-48-77z"/><path d="M1912 3205c-39-79-40-85-23-94 34-18 1266-573 1283-578 13-4 27 14 58 77 23 45 38 86 33 91-9 9-1292 589-1303 589-3 0-24-38-48-85z"/><path d="M1742 2864c-24-48-42-88-40-89 2-2 298-137 658-299l655-295 43 85c24 48 41 88 38 91-4 4-1305 593-1310 593-1 0-21-39-44-86z"/><path d="M1569 2519c-22-45-37-85-32-89 16-15 1303-591 1311-586 10 6 87 165 81 169-10 9-1299 587-1308 587-6 0-29-37-52-81z"/></g></svg>