<svg xmlns="http://www.w3.org/2000/svg" xmlns:xlink="http://www.w3.org/1999/xlink" height="180" width="180"><defs><linearGradient id="linearGradient852" x1=".56179774" x2=".63483149" xlink:href="#linearGradient841" y1="-1.0294118" y2=".50735295"/><linearGradient id="linearGradient844" xlink:href="#linearGradient841"/><linearGradient id="linearGradient845" x1="1.3833333" x2=".10833333" xlink:href="#linearGradient841" y1=".49019608" y2=".50490195"/><linearGradient id="linearGradient840" x1="-.22348484" x2=".594697" xlink:href="#linearGradient853" y1=".38235295" y2=".46568626"/><linearGradient id="linearGradient849" x1=".01056338" x2="1.2288733" xlink:href="#linearGradient846" y1=".43229166" y2=".46354166"/><radialGradient cx=".5" cy=".5" fx=".5" fy=".14942528" id="radialGradient864" r=".5" xlink:href="#linearGradient853"/><linearGradient id="linearGradient841"><stop offset="0" style="stop-color:#fff;stop-opacity:1"/><stop offset="1" style="stop-color:#fff;stop-opacity:0"/></linearGradient><linearGradient id="linearGradient1290"><stop offset="0" style="stop-color:#b2a269;stop-opacity:1"/><stop offset="1" style="stop-color:#6d5b18;stop-opacity:1"/></linearGradient><linearGradient id="linearGradient860" x1=".47535211" x2=".5" xlink:href="#linearGradient1290" y1=".8108108" y2="-.74324322"/><linearGradient id="linearGradient851" x1=".39788732" x2=".80985916" xlink:href="#linearGradient846" y1=".32222223" y2=".35555556"/><linearGradient id="linearGradient858" x1=".64285713" x2=".5714286" xlink:href="#linearGradient846" y1="1.2647059" y2=".049019609"/><linearGradient id="linearGradient846"><stop offset="0" style="stop-color:#e7e7e7;stop-opacity:1"/><stop offset="1" style="stop-color:#a5a5a5;stop-opacity:1"/></linearGradient><linearGradient id="linearGradient850" xlink:href="#linearGradient846"/><linearGradient id="linearGradient859" x1="1.4647887" x2=".26408452" xlink:href="#linearGradient853" y1="-1.1486486" y2="1.2905406"/><linearGradient id="linearGradient853"><stop offset="0" style="stop-color:#000;stop-opacity:.29752067"/><stop offset="1" style="stop-color:#000;stop-opacity:0"/></linearGradient><radialGradient cx=".5" cy=".5" fx=".50704223" fy=".29885057" id="radialGradient861" r=".5" xlink:href="#linearGradient853"/><linearGradient id="linearGradient1507"><stop offset="0" style="stop-color:#000;stop-opacity:.095505618"/><stop offset="1" style="stop-color:#000;stop-opacity:0"/></linearGradient><linearGradient id="linearGradient1501"><stop offset="0" style="stop-color:#fff;stop-opacity:1"/><stop offset="1" style="stop-color:#fff;stop-opacity:0"/></linearGradient><linearGradient id="linearGradient1492"><stop offset="0" style="stop-color:#dadada;stop-opacity:1"/><stop offset=".34923077" style="stop-color:#f1f1f1;stop-opacity:1"/><stop offset="1" style="stop-color:#f0f0f0;stop-opacity:1"/></linearGradient><linearGradient gradientUnits="userSpaceOnUse" gradientTransform="matrix(0.28346408,0,0,0.31053091,-71.19601,-24.724927)" id="linearGradient1495" x1="728.96643" x2="351.7063" xlink:href="#linearGradient1492" y1="230.07422" y2="689.86005"/><linearGradient gradientUnits="userSpaceOnUse" gradientTransform="matrix(0.28342481,0,0,0.31057396,-71.19601,-24.724927)" id="linearGradient1497" x1="741.63898" x2="622.33325" xlink:href="#linearGradient1492" y1="169.4436" y2="287.73825"/><linearGradient gradientUnits="userSpaceOnUse" gradientTransform="matrix(0.29342812,0,0,0.2999861,-71.19601,-24.724927)" id="linearGradient1499" x1="687.96375" x2="330.88034" xlink:href="#linearGradient1501" y1="236.12772" y2="418.53635"/><linearGradient gradientUnits="userSpaceOnUse" gradientTransform="scale(0.94468882,1.0585496)" id="linearGradient1506" x1="201.38963" x2="547.80804" xlink:href="#linearGradient1507" y1="843.20789" y2="383.76529"/><linearGradient id="linearGradient1556" x1=".31111112" x2=".62222224" xlink:href="#linearGradient1507" y1="-.5625" y2=".796875"/><radialGradient cx=".5" cy=".89285713" fx=".5411765" fy="3.52" id="radialGradient856" r=".5460667" xlink:href="#linearGradient841"/><linearGradient id="linearGradient1944" xlink:href="#linearGradient841"/><linearGradient id="linearGradient259"><stop style="stop-color:#fafafa;stop-opacity:1" offset="0"/><stop style="stop-color:#bbb;stop-opacity:1" offset="1"/></linearGradient><linearGradient id="linearGradient269"><stop style="stop-color:#a3a3a3;stop-opacity:1" offset="0"/><stop style="stop-color:#4c4c4c;stop-opacity:1" offset="1"/></linearGradient><linearGradient id="linearGradient15662"><stop style="stop-color:#fff;stop-opacity:1" offset="0"/><stop style="stop-color:#f8f8f8;stop-opacity:1" offset="1"/></linearGradient><radialGradient gradientUnits="userSpaceOnUse" fy="114.5684" fx="20.892099" r="5.256" cy="114.5684" cx="20.892099"><stop style="stop-color:#f0f0f0" offset="0"/><stop style="stop-color:#9a9a9a;stop-opacity:1" offset="1"/></radialGradient><radialGradient gradientUnits="userSpaceOnUse" fy="64.567902" fx="20.892099" r="5.257" cy="64.567902" cx="20.892099"><stop style="stop-color:#f0f0f0" offset="0"/><stop style="stop-color:#9a9a9a;stop-opacity:1" offset="1"/></radialGradient><linearGradient gradientUnits="userSpaceOnUse" gradientTransform="scale(0.94318133,1.0602415)" y2="389.18799" x2="544.78693" y1="836.03088" x1="207.86864" id="linearGradient956" xlink:href="#linearGradient1507"/><linearGradient gradientUnits="userSpaceOnUse" gradientTransform="scale(0.94394176,1.0593874)" y2="386.48169" x2="546.29553" y1="839.61707" x1="204.63277" id="linearGradient958" xlink:href="#linearGradient1507"/><linearGradient gradientUnits="userSpaceOnUse" gradientTransform="scale(0.94468882,1.0585496)" y2="383.76529" x2="547.80804" y1="843.20789" x1="201.38963" id="linearGradient960" xlink:href="#linearGradient1507"/></defs><g transform="matrix(1.0000022,0,0,1,5.9454237,-0.95269838)"><path style="fill:#fff;fill-rule:evenodd;stroke-width:.42649043;stroke-opacity:.3647799" d="m17.159384 15.662613v36.739236 36.739242 36.739229 36.73924h33.52764 33.52764H117.7423h33.52764V125.88032 89.141091 52.401849L117.7423 15.662613H84.214664 50.687024z"/><g transform="matrix(0.304171,0,0,0.297572,-36.70399,-103.15468)" style="fill:url(#linearGradient1506)"><path style="fill:url(#linearGradient956);fill-opacity:.75;fill-rule:evenodd;stroke-width:.95407498pt" d="m173.35959 408.8126v122.261 122.261 122.261 122.261h108.76228 108.7623 108.76229 108.76228V775.5956 653.3346 531.0736L499.64646 408.8126H390.88417 282.12187z"/><path style="fill:url(#linearGradient958);fill-opacity:.75;fill-rule:evenodd;stroke-width:.95407498pt" d="m170.125 407.1875c0 164.63542.0 329.27083.0 493.90625 147.17708.0 294.35417.0 441.53125.0.0-123.76042.0-247.52083.0-371.28125-36.84707-41.42272-73.68021-82.85915-110.5625-124.25-110.32292.0-220.64583.0-330.96875.0.0.33333.0 1.41667.0 1.625z"/><path style="fill:url(#linearGradient960);fill-opacity:.75;fill-rule:evenodd;stroke-width:.95407498pt" d="m166.875 403.9375c0 166.80208.0 333.60417.0 500.40625 149.34375.0 298.6875.0 448.03125.0.0-125.26042.0-250.52083.0-375.78125-37.45108-42.08952-74.88871-84.19233-112.375-126.25-111.88542.0-223.77083.0-335.65625.0.0.33333.0 1.41667.0 1.625z"/></g><path style="fill:url(#linearGradient1495);fill-opacity:1;fill-rule:evenodd;stroke:#000;stroke-width:.42649043;stroke-opacity:.3647799" d="M17.214446 15.844784V52.58402 89.323259 126.0625v36.73923H50.742083h33.52764H117.79736 151.325V126.0625 89.323259 52.58402L117.79736 15.844784H84.269723 50.742083z"/><path style="fill:#000;fill-opacity:.09433965;fill-rule:evenodd;stroke-width:1.00000003pt" d="M27.15877 26.044228h74.377357V46.99831H27.15877z"/><path style="fill-opacity:.43396229;fill-rule:evenodd;stroke-width:1.00000003pt" d="M26.448841 58.30938h115.28344v2.4428799H26.448841z"/><path style="fill:url(#linearGradient1499);fill-opacity:1;fill-rule:evenodd;stroke-width:.29668904pt" d="M18.198329 27.168551 17.594312 161.86407H149.26976l.0755-33.29637c-2.94458 1.13253-32.69236-40.99757-70.141338-39.185524-37.482979 1.813692-27.784726-56.777484-61.005593-62.213625z"/><path style="fill-opacity:.43396229;fill-rule:evenodd;stroke-width:1.00000003pt" d="M26.448841 69.759598h115.28344v2.4428799H26.448841z"/><path style="fill-opacity:.43396229;fill-rule:evenodd;stroke-width:1.00000003pt" d="M26.448841 81.209816h110.99767v2.4428799H26.448841z"/><path style="fill-opacity:.43396229;fill-rule:evenodd;stroke-width:1.00000003pt" d="M26.448841 92.660027h63.77132v2.4428799H26.448841z"/><path style="fill-opacity:.43396229;fill-rule:evenodd;stroke-width:1.00000003pt" d="M26.448841 104.11026h63.098103v2.4428799H26.448841z"/><path style="fill:url(#linearGradient1497);fill-opacity:1;fill-rule:evenodd;stroke-width:.28306355pt" d="m151.325 52.58402c-10.10812-2.9925-23.20597-2.56817-33.10054-.862528 1.70842-10.962327 1.92197-24.700828-.4271-35.876708z"/><path style="fill:#b9b9b9;fill-opacity:.27672957;fill-rule:evenodd;stroke:#000;stroke-width:1.00000003pt;stroke-opacity:.16352204" d="M96.599358 91.696053h44.721928v42.933048H96.599358z"/><path style="fill-opacity:.43396229;fill-rule:evenodd;stroke-width:1.00000003pt" d="M26.509146 115.65061h63.098103v2.4428799H26.509146z"/><path style="fill-opacity:.43396229;fill-rule:evenodd;stroke-width:1.00000003pt" d="M26.559019 127.10084h63.77132v2.4428799H26.559019z"/><path style="fill-opacity:.43396229;fill-rule:evenodd;stroke-width:1.00000003pt" d="M26.559019 138.55106h83.091194v2.4428799H26.559019z"/><path style="fill-opacity:.43396229;fill-rule:evenodd;stroke-width:1.00000003pt" d="M26.559019 150.00128h115.28344v2.4428799H26.559019z"/></g><path style="stroke-width:11.25000095;fill:#00f;fill-opacity:1" d="m16.875 11.250003a5.6250002 5.6249999.0 00-5.625 5.625v33.75a5.6250002 5.6249999.0 01-11.25.0v-33.75A16.875001 16.874999.0 0116.875 3e-6h33.75a5.6250006 5.6250001.0 010 11.25zm106.87501-5.625a5.6250002 5.6249999.0 015.625-5.625h33.75A16.875001 16.874999.0 01180 16.875003v33.75a5.6250002 5.6249999.0 01-11.24999.0v-33.75a5.6250002 5.6249999.0 00-5.625-5.625h-33.75a5.6250002 5.6249999.0 01-5.625-5.625zM5.625 123.75a5.6250002 5.6249999.0 015.625 5.625v33.75a5.6250002 5.6249999.0 005.625 5.625h33.75a5.6250004 5.6250001.0 010 11.25H16.875A16.875001 16.874999.0 010 163.125v-33.75a5.6250002 5.6249999.0 015.625-5.625zm168.75.0a5.6250002 5.6249999.0 015.625 5.625v33.75A16.875001 16.874999.0 01163.12501 180h-33.75a5.6250004 5.6250001.0 010-11.25h33.75a5.6250002 5.6249999.0 005.625-5.625v-33.75a5.6250002 5.6249999.0 015.62499-5.625z"/></svg>