<svg xmlns="http://www.w3.org/2000/svg" width="24" viewBox="0 0 24 24" height="24"><path style="stroke-width:1.0238024" d="M19.294826.0H4.6204282C3.1739518.0 2 1.12 2 2.5v19C2 22.88 3.1739518 24 4.6204282 24H19.294826c1.446476.0 2.620428-1.12 2.620428-2.5v-19c0-1.38-1.173952-2.5-2.620428-2.5zm-7.337199 23c-.869982.0-1.572257-.67-1.572257-1.5.0-.83.702275-1.5 1.572257-1.5.869982.0 1.572257.67 1.572257 1.5.0.83-.702275 1.5-1.572257 1.5zm7.861285-4H4.0963426V3H19.818912z" /><path d="m13.47239 8.5468393-3.5210528-1.58814.3992848-.805756 3.521053 1.588141zM8.7534786 9.3759663 14.91532 12.155211 15.314607 11.349455 9.1527648 8.5702103zm-.7985723 1.6115107 6.1618427 2.779245.399286-.805756-6.1618425-2.779245zm-.7985724 1.611511 6.1618421 2.779245.399287-.805756-6.1618429-2.779245zm11.7972771-2.072817-3.793218 7.654678c-.219608.443166-.795404.62709-1.279549.408721L5.0782128 14.619219C4.5940688 14.40085 4.3776287 13.859595 4.5972364 13.416429l4.791433-9.6690667c.2196065-.443165.7954036-.62709 1.2795486-.408721l6.601974 2.977763zm-1.079906.0058-1.44293-3.6083707-6.161843-2.779246-4.791433 9.6690667 8.802631 3.97035z" style="fill:#00f;fill-rule:evenodd;stroke-width:.93156183" /><path d="M13.47239 8.546839 9.9513372 6.958699 10.350622 6.152943 13.871675 7.741084zM8.7534786 9.375966 14.91532 12.155211 15.314607 11.349455 9.1527648 8.57021zm-.7985723 1.611511 6.1618427 2.779245.399286-.805756-6.1618425-2.779245zm-.7985724 1.611511 6.1618421 2.779245.399287-.805756-6.1618429-2.779245zM9.3886694 3.7473619c11.2981076 10.7772641 5.6490536 5.3886321.0.0zm8.4850356 6.7846091c5.641417 6.254191 2.820709 3.127096.0.0z" style="fill-rule:evenodd;stroke-width:.93156183" /></svg>