<svg version="1.0" xmlns="http://www.w3.org/2000/svg" width="700pt" height="700pt" viewBox="0 0 700 700"><g transform="translate(0.000000,700.000000) scale(0.100000,-0.100000)" fill="#000" stroke="none"><path d="M5e2 6984c-181-47-350-183-428-344-75-153-73-118-70-947l3-739 27-42c76-114 241-134 338-39 73 71 70 31 70 812 0 682 1 701 21 745 27 60 45 79 104 106l50 24h7e2c781 0 741-3 812 70 95 97 75 262-39 338l-42 27-745 2c-624 2-755 0-801-13z"/><path d="M4932 6979c-166-82-158-322 13-4e2 38-17 83-19 740-19 682 0 701-1 745-21 60-27 79-45 106-104l24-50v-7e2c0-781-3-741 70-812 97-95 262-75 338 39l27 42 3 739c3 829 5 794-70 947-58 119-169 230-288 288-152 75-118 72-935 72-724 0-730 0-773-21z"/><path d="M890 4069c0-2098-2-2360-15-2349-13 11-15-48-15-524V660h646c574 0 645 2 634 15-11 13 2e2 15 1892 15 1048 0 1946 3 1996 6l92 7v2149V5e3l-652 715-653 715H2853 890V4069zm3925 2335c13-5 1197-1293 1263-1375l22-27 7-2141 6-2141H3512 910v2845 2845h1944c1069 0 1952-3 1961-6z"/><path d="M2825 6001c11-11 213-193 450-405l430-386h237 238v405 405h-687c-677 0-687 0-668-19z"/><path d="M1260 4720v-50h2245 2245v50 50H3505 1260v-50z"/><path d="M1260 4280v-50h2246 2245l-3 48-3 47-2242 3-2243 2v-50z"/><path d="M1260 3830v-50h2160 2160v50 50H3420 1260v-50z"/><path d="M4405 3490l-430-5-3-852-3-853h161c1e2.0 160 4 160 10 0 7 247 10 720 10h720v251c0 164 3 248 10 244 7-4 10 198 10 599v606l-457-2c-252-2-651-5-888-8zm516-50h779v-805-805h-845-845v803c0 442 3 807 8 811 4 5 34 5 66 2 32-3 409-6 837-6z"/><path d="M1260 3390v-50h1240 1240v43 44l-482 6c-265 4-823 7-1240 7h-758v-50z"/><path d="M1260 2940v-50h1225 1225v50 50H2485 1260v-50z"/><path d="M1260 2490v-50l1228 2 1227 3 3 48 3 47H2491 1260v-50z"/><path d="M1267 2093c-4-3-7-26-7-50v-43h1246 1245l-3 48-3 47-1236 3c-679 1-1239-1-1242-5z"/><path d="M1260 16e2v-50l1618 2 1617 3 3 48 3 47H2881 1260v-50z"/><path d="M1267 1203c-4-3-7-26-7-50v-43h2245 2245v43 44l-877 6c-1138 9-3598 9-3606 0z"/><path d="M119 2162c-34-17-65-44-84-71l-30-43-3-740c-3-830-5-795 70-948C146 208 292 84 470 24c52-18 98-19 816-19h760l42 27c114 76 134 241 39 338-71 73-31 70-812 70H615l-50 24c-59 27-77 46-104 106-20 44-21 63-21 745 0 657-2 702-19 740-55 121-187 167-302 107z"/><path d="M6695 2171c-51-23-93-65-116-116-17-38-19-83-19-740 0-682-1-701-21-745-27-60-45-79-104-106l-50-24h-7e2c-781 0-741 3-812-70-95-97-75-262 39-338l42-27 739-3c829-3 794-5 947 70 119 58 230 169 288 288 75 153 73 118 70 948l-3 740-30 44c-59 85-180 120-270 79z"/></g></svg>