<?xml version="1.0" encoding="UTF-8" standalone="no"?>
<svg
   xmlns:dc="http://purl.org/dc/elements/1.1/"
   xmlns:cc="http://creativecommons.org/ns#"
   xmlns:rdf="http://www.w3.org/1999/02/22-rdf-syntax-ns#"
   xmlns:svg="http://www.w3.org/2000/svg"
   xmlns="http://www.w3.org/2000/svg"
   xmlns:xlink="http://www.w3.org/1999/xlink"
   version="1.1"
   width="128.00000pt"
   id="svg1"
   height="128.00000pt">
  <metadata
     id="metadata2">
    <rdf:RDF>
      <cc:Work
         rdf:about="">
        <dc:title></dc:title>
        <dc:description />
        <dc:subject>
          <rdf:Bag>
            <rdf:li>hash</rdf:li>
            <rdf:li />
            <rdf:li>mime-types</rdf:li>
            <rdf:li>computer</rdf:li>
            <rdf:li>icons</rdf:li>
          </rdf:Bag>
        </dc:subject>
        <dc:publisher>
          <cc:Agent
             rdf:about="http://www.openclipart.org">
            <dc:title>Andy Fitzsimon</dc:title>
          </cc:Agent>
        </dc:publisher>
        <dc:creator>
          <cc:Agent>
            <dc:title>Andy Fitzsimon</dc:title>
          </cc:Agent>
        </dc:creator>
        <dc:rights>
          <cc:Agent>
            <dc:title>Andy Fitzsimon</dc:title>
          </cc:Agent>
        </dc:rights>
        <dc:date />
        <dc:format>image/svg+xml</dc:format>
        <dc:type
           rdf:resource="http://purl.org/dc/dcmitype/StillImage" />
        <cc:license
           rdf:resource="http://web.resource.org/cc/PublicDomain" />
        <dc:language>en</dc:language>
      </cc:Work>
      <cc:License
         rdf:about="http://web.resource.org/cc/PublicDomain">
        <cc:permits
           rdf:resource="http://web.resource.org/cc/Reproduction" />
        <cc:permits
           rdf:resource="http://web.resource.org/cc/Distribution" />
        <cc:permits
           rdf:resource="http://web.resource.org/cc/DerivativeWorks" />
      </cc:License>
    </rdf:RDF>
  </metadata>
  <defs
     id="defs3">
    <linearGradient
       y2="0.50735295"
       y1="-1.0294118"
       xlink:href="#linearGradient841"
       x2="0.63483149"
       x1="0.56179774"
       id="linearGradient852" />
    <linearGradient
       xlink:href="#linearGradient841"
       id="linearGradient844" />
    <linearGradient
       y2="0.50490195"
       y1="0.49019608"
       xlink:href="#linearGradient841"
       x2="0.10833333"
       x1="1.3833333"
       id="linearGradient845" />
    <linearGradient
       y2="0.46568626"
       y1="0.38235295"
       xlink:href="#linearGradient853"
       x2="0.59469700"
       x1="-0.22348484"
       id="linearGradient840" />
    <linearGradient
       y2="0.46354166"
       y1="0.43229166"
       xlink:href="#linearGradient846"
       x2="1.2288733"
       x1="0.010563380"
       id="linearGradient849" />
    <radialGradient
       xlink:href="#linearGradient853"
       r="0.50000000"
       id="radialGradient864"
       fy="0.14942528"
       fx="0.50000000"
       cy="0.50000000"
       cx="0.50000000" />
    <linearGradient
       id="linearGradient841">
      <stop
         style="stop-color:#ffffff;stop-opacity:1.0000000;"
         offset="0.00000000"
         id="stop842" />
      <stop
         style="stop-color:#ffffff;stop-opacity:0.00000000;"
         offset="1.0000000"
         id="stop843" />
    </linearGradient>
    <linearGradient
       id="linearGradient1290">
      <stop
         style="stop-color:#b2a269;stop-opacity:1.0000000;"
         offset="0.0000000"
         id="stop1291" />
      <stop
         style="stop-color:#6d5b18;stop-opacity:1.0000000;"
         offset="1.0000000"
         id="stop1292" />
    </linearGradient>
    <linearGradient
       y2="-0.74324322"
       y1="0.81081080"
       xlink:href="#linearGradient1290"
       x2="0.50000000"
       x1="0.47535211"
       id="linearGradient860" />
    <linearGradient
       y2="0.35555556"
       y1="0.32222223"
       xlink:href="#linearGradient846"
       x2="0.80985916"
       x1="0.39788732"
       id="linearGradient851" />
    <linearGradient
       y2="0.049019609"
       y1="1.2647059"
       xlink:href="#linearGradient846"
       x2="0.57142860"
       x1="0.64285713"
       id="linearGradient858" />
    <linearGradient
       id="linearGradient846">
      <stop
         style="stop-color:#e7e7e7;stop-opacity:1.0000000;"
         offset="0.00000000"
         id="stop847" />
      <stop
         style="stop-color:#a5a5a5;stop-opacity:1.0000000;"
         offset="1.0000000"
         id="stop848" />
    </linearGradient>
    <linearGradient
       xlink:href="#linearGradient846"
       id="linearGradient850" />
    <linearGradient
       y2="1.2905406"
       y1="-1.1486486"
       xlink:href="#linearGradient853"
       x2="0.26408452"
       x1="1.4647887"
       id="linearGradient859" />
    <linearGradient
       id="linearGradient853">
      <stop
         style="stop-color:#000000;stop-opacity:0.29752067;"
         offset="0.00000000"
         id="stop854" />
      <stop
         style="stop-color:#000000;stop-opacity:0.00000000;"
         offset="1.0000000"
         id="stop855" />
    </linearGradient>
    <radialGradient
       xlink:href="#linearGradient853"
       r="0.50000000"
       id="radialGradient861"
       fy="0.29885057"
       fx="0.50704223"
       cy="0.50000000"
       cx="0.50000000" />
    <linearGradient
       id="linearGradient1507">
      <stop
         style="stop-color:#000000;stop-opacity:0.095505618;"
         offset="0.0000000"
         id="stop1508" />
      <stop
         style="stop-color:#000000;stop-opacity:0.0000000;"
         offset="1.0000000"
         id="stop1510" />
    </linearGradient>
    <linearGradient
       id="linearGradient1501">
      <stop
         style="stop-color:#ffffff;stop-opacity:1.0000000;"
         offset="0.0000000"
         id="stop1502" />
      <stop
         style="stop-color:#ffffff;stop-opacity:0.0000000;"
         offset="1.0000000"
         id="stop1504" />
    </linearGradient>
    <linearGradient
       id="linearGradient1492">
      <stop
         style="stop-color:#dadada;stop-opacity:1.0000000;"
         offset="0.0000000"
         id="stop1493" />
      <stop
         style="stop-color:#f1f1f1;stop-opacity:1.0000000;"
         offset="0.34923077"
         id="stop1496" />
      <stop
         style="stop-color:#f0f0f0;stop-opacity:1.0000000;"
         offset="1.0000000"
         id="stop1494" />
    </linearGradient>
    <linearGradient
       y2="1.1796875"
       y1="0.21093750"
       xlink:href="#linearGradient1492"
       x2="0.085470088"
       x1="0.88034189"
       id="linearGradient1495" />
    <linearGradient
       y2="1.3281250"
       y1="0.32812500"
       xlink:href="#linearGradient1492"
       x2="-0.37606838"
       x1="0.63247865"
       id="linearGradient1497" />
    <linearGradient
       y2="0.54687500"
       y1="0.14062500"
       xlink:href="#linearGradient1501"
       x2="0.062992126"
       x1="0.85826772"
       id="linearGradient1499" />
    <linearGradient
       y2="0.0078125000"
       y1="0.97656250"
       xlink:href="#linearGradient1507"
       x2="0.78260869"
       x1="0.052173913"
       id="linearGradient1506" />
    <linearGradient
       y2="0.79687500"
       y1="-0.56250000"
       xlink:href="#linearGradient1507"
       x2="0.62222224"
       x1="0.31111112"
       id="linearGradient1556" />
    <radialGradient
       xlink:href="#linearGradient841"
       r="0.54606670"
       id="radialGradient856"
       fy="3.5200000"
       fx="0.54117650"
       cy="0.89285713"
       cx="0.50000000" />
    <linearGradient
       xlink:href="#linearGradient841"
       id="linearGradient1944" />
  </defs>
  <path
     style="fill:#ffffff;fill-rule:evenodd;stroke-width:0.42649043;stroke-opacity:0.36477986;"
     id="path930"
     d="M 17.159384,6.3292894 L 17.159384,43.068526 L 17.159384,79.807768 L 17.159384,116.54700 L 17.159384,153.28624 L 50.687024,153.28624 L 84.214664,153.28624 L 117.74230,153.28624 L 151.26994,153.28624 L 151.26994,116.54700 L 151.26994,79.807768 L 151.26994,43.068526 L 117.74230,6.3292894 L 84.214664,6.3292894 L 50.687024,6.3292894 L 17.159384,6.3292894 z " />
  <g
     transform="matrix(0.304171,0.000000,0.000000,0.297572,-36.70399,-112.4880)"
     style="fill:url(#linearGradient1506);"
     id="g1552">
    <path
       style="fill-opacity:0.75000000;fill-rule:evenodd;stroke-width:0.95407495pt;"
       id="path1505"
       d="M 173.35959,408.81260 L 173.35959,531.07360 L 173.35959,653.33460 L 173.35959,775.59560 L 173.35959,897.85660 L 282.12187,897.85660 L 390.88417,897.85660 L 499.64646,897.85660 L 608.40874,897.85660 L 608.40874,775.59560 L 608.40874,653.33460 L 608.40874,531.07360 L 499.64646,408.81260 L 390.88417,408.81260 L 282.12187,408.81260 L 173.35959,408.81260 z " />
    <path
       style="fill-opacity:0.75000000;fill-rule:evenodd;stroke-width:0.95407495pt;"
       id="path1538"
       d="M 170.12500,407.18750 C 170.12500,571.82292 170.12500,736.45833 170.12500,901.09375 C 317.30208,901.09375 464.47917,901.09375 611.65625,901.09375 C 611.65625,777.33333 611.65625,653.57292 611.65625,529.81250 C 574.80918,488.38978 537.97604,446.95335 501.09375,405.56250 C 390.77083,405.56250 280.44792,405.56250 170.12500,405.56250 C 170.12500,405.89583 170.12500,406.97917 170.12500,407.18750 z " />
    <path
       style="fill-opacity:0.75000000;fill-rule:evenodd;stroke-width:0.95407495pt;"
       id="path1543"
       d="M 166.87500,403.93750 C 166.87500,570.73958 166.87500,737.54167 166.87500,904.34375 C 316.21875,904.34375 465.56250,904.34375 614.90625,904.34375 C 614.90625,779.08333 614.90625,653.82292 614.90625,528.56250 C 577.45517,486.47298 540.01754,444.37017 502.53125,402.31250 C 390.64583,402.31250 278.76042,402.31250 166.87500,402.31250 C 166.87500,402.64583 166.87500,403.72917 166.87500,403.93750 z " />
  </g>
  <path
     transform="matrix(0.296689,0.000000,0.000000,0.296689,-71.19601,-34.05825)"
     style="fill:url(#linearGradient1495);fill-opacity:1;fill-rule:evenodd;stroke:#000000;stroke-width:1.4375000;stroke-opacity:0.36477986;"
     id="rect900"
     d="M 297.99034,136.74154 L 297.99034,260.57234 L 297.99034,384.40315 L 297.99034,508.23395 L 297.99034,632.06475 L 410.99634,632.06475 L 524.00235,632.06475 L 637.00835,632.06475 L 750.01435,632.06475 L 750.01435,508.23395 L 750.01435,384.40315 L 750.01435,260.57234 L 637.00835,136.74154 L 524.00235,136.74154 L 410.99634,136.74154 L 297.99034,136.74154 z " />
  <rect
     y="16.710905"
     x="27.158770"
     width="74.377357"
     style="fill:#000000;fill-opacity:0.094339617;fill-rule:evenodd;stroke-width:1.0000000pt;"
     id="rect1534"
     height="20.954082" />
  <rect
     y="48.976055"
     x="26.448841"
     width="115.28344"
     style="fill-opacity:0.43396226;fill-rule:evenodd;stroke-width:1.0000000pt;"
     id="rect1535"
     height="2.4428799" />
  <path
     transform="matrix(0.296689,0.000000,0.000000,0.296689,-71.19601,-34.05825)"
     style="fill:url(#linearGradient1499);fill-opacity:1;fill-rule:evenodd;stroke-width:1.0000000pt;"
     id="path1500"
     d="M 301.30655,174.90867 L 299.27069,628.90434 L 743.08709,628.90434 L 743.34157,516.67783 C 733.41677,520.49506 633.15091,378.49417 506.92790,384.60173 C 380.59029,390.71484 413.27857,193.23136 301.30655,174.90867 z " />
  <rect
     y="60.426273"
     x="26.448841"
     width="115.28344"
     style="fill-opacity:0.43396226;fill-rule:evenodd;stroke-width:1.0000000pt;"
     id="rect1536"
     height="2.4428799" />
  <rect
     y="71.876495"
     x="26.448841"
     width="110.99767"
     style="fill-opacity:0.43396226;fill-rule:evenodd;stroke-width:1.0000000pt;"
     id="rect1537"
     height="2.4428799" />
  <rect
     y="83.326706"
     x="26.448841"
     width="63.771320"
     style="fill-opacity:0.43396226;fill-rule:evenodd;stroke-width:1.0000000pt;"
     id="rect1538"
     height="2.4428799" />
  <rect
     y="94.776939"
     x="26.448841"
     width="63.098103"
     style="fill-opacity:0.43396226;fill-rule:evenodd;stroke-width:1.0000000pt;"
     id="rect1539"
     height="2.4428799" />
  <path
     transform="matrix(0.296689,0.000000,0.000000,0.296689,-71.19601,-34.05825)"
     style="fill:url(#linearGradient1497);fill-opacity:1;fill-rule:evenodd;stroke-width:0.95407495pt;"
     id="path906"
     d="M 750.01435,260.57234 C 715.94460,250.48602 671.79788,251.91624 638.44792,257.66516 C 644.20618,220.71628 644.92597,174.41021 637.00835,136.74154 L 750.01435,260.57234 z " />
  <rect
     y="82.362732"
     x="96.599358"
     width="44.721928"
     style="fill:#b9b9b9;fill-opacity:0.27672955;fill-rule:evenodd;stroke:#000000;stroke-width:1.0000000pt;stroke-opacity:0.16352202;"
     id="rect2441"
     height="42.933048" />
  <rect
     y="106.31729"
     x="26.509146"
     width="63.098103"
     style="fill-opacity:0.43396226;fill-rule:evenodd;stroke-width:1.0000000pt;"
     id="rect3029"
     height="2.4428799" />
  <rect
     y="117.76752"
     x="26.559019"
     width="63.771320"
     style="fill-opacity:0.43396226;fill-rule:evenodd;stroke-width:1.0000000pt;"
     id="rect3030"
     height="2.4428799" />
  <rect
     y="129.21773"
     x="26.559019"
     width="83.091194"
     style="fill-opacity:0.43396226;fill-rule:evenodd;stroke-width:1.0000000pt;"
     id="rect3031"
     height="2.4428799" />
  <rect
     y="140.66795"
     x="26.559019"
     width="115.28344"
     style="fill-opacity:0.43396226;fill-rule:evenodd;stroke-width:1.0000000pt;"
     id="rect3032"
     height="2.4428799" />
</svg>
