<?xml version="1.0" encoding="UTF-8" standalone="no"?>
<svg
   xmlns="http://www.w3.org/2000/svg"
   width="24"
   viewBox="0 0 24 24"
   height="24">
  <path
     style="stroke-width:1.0238024"
     d="M 19.294826,0 H 4.6204282 C 3.1739518,0 2,1.12 2,2.5 v 19 C 2,22.88 3.1739518,24 4.6204282,24 H 19.294826 c 1.446476,0 2.620428,-1.12 2.620428,-2.5 v -19 c 0,-1.38 -1.173952,-2.5 -2.620428,-2.5 z m -7.337199,23 c -0.869982,0 -1.572257,-0.67 -1.572257,-1.5 0,-0.83 0.702275,-1.5 1.572257,-1.5 0.869982,0 1.572257,0.67 1.572257,1.5 0,0.83 -0.702275,1.5 -1.572257,1.5 z m 7.861285,-4 H 4.0963426 V 3 H 19.818912 Z" />
  <path
     d="m 13.47239,8.5468393 -3.5210528,-1.58814 0.3992848,-0.805756 3.521053,1.588141 z M 8.7534786,9.3759663 14.91532,12.155211 15.314607,11.349455 9.1527648,8.5702103 Z m -0.7985723,1.6115107 6.1618427,2.779245 0.399286,-0.805756 -6.1618425,-2.779245 z m -0.7985724,1.611511 6.1618421,2.779245 0.399287,-0.805756 -6.1618429,-2.779245 z m 11.7972771,-2.072817 -3.793218,7.654678 c -0.219608,0.443166 -0.795404,0.62709 -1.279549,0.408721 L 5.0782128,14.619219 C 4.5940688,14.40085 4.3776287,13.859595 4.5972364,13.416429 l 4.791433,-9.6690667 c 0.2196065,-0.443165 0.7954036,-0.62709 1.2795486,-0.408721 l 6.601974,2.977763 z m -1.079906,0.0058 -1.44293,-3.6083707 -6.161843,-2.779246 -4.791433,9.6690667 8.802631,3.97035 z"
     style="fill:#0000ff;fill-rule:evenodd;stroke-width:0.93156183" />
  <path
     d="M 13.47239,8.546839 9.9513372,6.958699 10.350622,6.152943 13.871675,7.741084 Z M 8.7534786,9.375966 14.91532,12.155211 15.314607,11.349455 9.1527648,8.57021 Z m -0.7985723,1.611511 6.1618427,2.779245 0.399286,-0.805756 -6.1618425,-2.779245 z m -0.7985724,1.611511 6.1618421,2.779245 0.399287,-0.805756 -6.1618429,-2.779245 z M 9.3886694,3.7473619 c 11.2981076,10.7772641 5.6490536,5.3886321 0,0 z m 8.4850356,6.7846091 c 5.641417,6.254191 2.820709,3.127096 0,0 z"
     style="fill-rule:evenodd;stroke-width:0.93156183" />
</svg>
