<?xml version="1.0" standalone="no"?>
<!DOCTYPE svg PUBLIC "-//W3C//DTD SVG 20010904//EN"
 "http://www.w3.org/TR/2001/REC-SVG-20010904/DTD/svg10.dtd">
<svg version="1.0" xmlns="http://www.w3.org/2000/svg"
 width="700.000000pt" height="700.000000pt" viewBox="0 0 700.000000 700.000000"
 preserveAspectRatio="xMidYMid meet">
<metadata>
Created by potrace 1.14, written by Peter Selinger 2001-2017
</metadata>
<g transform="translate(0.000000,700.000000) scale(0.100000,-0.100000)"
fill="#000000" stroke="none">
<path d="M500 6984 c-181 -47 -350 -183 -428 -344 -75 -153 -73 -118 -70 -947
l3 -739 27 -42 c76 -114 241 -134 338 -39 73 71 70 31 70 812 0 682 1 701 21
745 27 60 45 79 104 106 l50 24 700 0 c781 0 741 -3 812 70 95 97 75 262 -39
338 l-42 27 -745 2 c-624 2 -755 0 -801 -13z"/>
<path d="M4932 6979 c-166 -82 -158 -322 13 -400 38 -17 83 -19 740 -19 682 0
701 -1 745 -21 60 -27 79 -45 106 -104 l24 -50 0 -700 c0 -781 -3 -741 70
-812 97 -95 262 -75 338 39 l27 42 3 739 c3 829 5 794 -70 947 -58 119 -169
230 -288 288 -152 75 -118 72 -935 72 -724 0 -730 0 -773 -21z"/>
<path d="M890 4069 c0 -2098 -2 -2360 -15 -2349 -13 11 -15 -48 -15 -524 l0
-536 646 0 c574 0 645 2 634 15 -11 13 200 15 1892 15 1048 0 1946 3 1996 6
l92 7 0 2149 0 2148 -652 715 -653 715 -1962 0 -1963 0 0 -2361z m3925 2335
c13 -5 1197 -1293 1263 -1375 l22 -27 7 -2141 6 -2141 -2601 0 -2602 0 0 2845
0 2845 1944 0 c1069 0 1952 -3 1961 -6z"/>
<path d="M2825 6001 c11 -11 213 -193 450 -405 l430 -386 237 0 238 0 0 405 0
405 -687 0 c-677 0 -687 0 -668 -19z"/>
<path d="M1260 4720 l0 -50 2245 0 2245 0 0 50 0 50 -2245 0 -2245 0 0 -50z"/>
<path d="M1260 4280 l0 -50 2246 0 2245 0 -3 48 -3 47 -2242 3 -2243 2 0 -50z"/>
<path d="M1260 3830 l0 -50 2160 0 2160 0 0 50 0 50 -2160 0 -2160 0 0 -50z"/>
<path d="M4405 3490 l-430 -5 -3 -852 -3 -853 161 0 c100 0 160 4 160 10 0 7
247 10 720 10 l720 0 0 251 c0 164 3 248 10 244 7 -4 10 198 10 599 l0 606
-457 -2 c-252 -2 -651 -5 -888 -8z m516 -50 l779 0 0 -805 0 -805 -845 0 -845
0 0 803 c0 442 3 807 8 811 4 5 34 5 66 2 32 -3 409 -6 837 -6z"/>
<path d="M1260 3390 l0 -50 1240 0 1240 0 0 43 0 44 -482 6 c-265 4 -823 7
-1240 7 l-758 0 0 -50z"/>
<path d="M1260 2940 l0 -50 1225 0 1225 0 0 50 0 50 -1225 0 -1225 0 0 -50z"/>
<path d="M1260 2490 l0 -50 1228 2 1227 3 3 48 3 47 -1230 0 -1231 0 0 -50z"/>
<path d="M1267 2093 c-4 -3 -7 -26 -7 -50 l0 -43 1246 0 1245 0 -3 48 -3 47
-1236 3 c-679 1 -1239 -1 -1242 -5z"/>
<path d="M1260 1600 l0 -50 1618 2 1617 3 3 48 3 47 -1620 0 -1621 0 0 -50z"/>
<path d="M1267 1203 c-4 -3 -7 -26 -7 -50 l0 -43 2245 0 2245 0 0 43 0 44
-877 6 c-1138 9 -3598 9 -3606 0z"/>
<path d="M119 2162 c-34 -17 -65 -44 -84 -71 l-30 -43 -3 -740 c-3 -830 -5
-795 70 -948 74 -152 220 -276 398 -336 52 -18 98 -19 816 -19 l760 0 42 27
c114 76 134 241 39 338 -71 73 -31 70 -812 70 l-700 0 -50 24 c-59 27 -77 46
-104 106 -20 44 -21 63 -21 745 0 657 -2 702 -19 740 -55 121 -187 167 -302
107z"/>
<path d="M6695 2171 c-51 -23 -93 -65 -116 -116 -17 -38 -19 -83 -19 -740 0
-682 -1 -701 -21 -745 -27 -60 -45 -79 -104 -106 l-50 -24 -700 0 c-781 0
-741 3 -812 -70 -95 -97 -75 -262 39 -338 l42 -27 739 -3 c829 -3 794 -5 947
70 119 58 230 169 288 288 75 153 73 118 70 948 l-3 740 -30 44 c-59 85 -180
120 -270 79z"/>
</g>
</svg>
