<svg xmlns="http://www.w3.org/2000/svg" width="16" height="16" fill="currentColor" class="bi bi-upc-scan" viewBox="0 0 16 16">
  <path d="M 1.5 1 a 0.5 0.5 0 0 0 -0.5 0.5 v 3 a 0.5 0.5 0 0 1 -1 0 v -3 A 1.5 1.5 0 0 1 1.5 0 h 3 a 0.5 0.5 0 0 1 0 1 h -3 z M 11 0.5 a 0.5 0.5 0 0 1 0.5 -0.5 h 3 A 1.5 1.5 0 0 1 16 1.5 v 3 a 0.5 0.5 0 0 1 -1 0 v -3 a 0.5 0.5 0 0 0 -0.5 -0.5 h -3 a 0.5 0.5 0 0 1 -0.5 -0.5 z M 0.5 11 a 0.5 0.5 0 0 1 0.5 0.5 v 3 a 0.5 0.5 0 0 0 0.5 0.5 h 3 a 0.5 0.5 0 0 1 0 1 h -3 A 1.5 1.5 0 0 1 0 14.5 v -3 a 0.5 0.5 0 0 1 0.5 -0.5 z m 15 0 a 0.5 0.5 0 0 1 0.5 0.5 v 3 a 1.5 1.5 0 0 1 -1.5 1.5 h -3 a 0.5 0.5 0 0 1 0 -1 h 3 a 0.5 0.5 0 0 0 0.5 -0.5 v -3 a 0.5 0.5 0 0 1 0.5 -0.5 z z z z z z"/>
</svg>
